# xmcd
#
# Track frame offsets: 
#        150
#        10563
#        25174
#        40414
#        47267
#        63461
#        78319
#        91711
#        103490
#        113997
#        130050
#        142906
#        157732
#
# Disc length: 2305 seconds
#
# Revision: 0
# Processed by: cddbd v1.5.2PL0 Copyright (c) Steve Scherf et al.
# Submitted via: ExactAudioCopyFreeDBPlugin 1.0
#
DISCID=9508ff0d
DTITLE=David Myles - Into the Sun
DYEAR=2011
DGENRE=Folk
TTITLE0=Run
TTITLE1=Simple Pleasures
TTITLE2=I'll Never Know
TTITLE3=The Sea
TTITLE4=Long Dark Night
TTITLE5=Don't Look Back
TTITLE6=Leaving
TTITLE7=Nina
TTITLE8=Falling In Love
TTITLE9=The Bottom
TTITLE10=Ooh La La
TTITLE11=Time To Be a Man
TTITLE12=Simple Pleasures (Classified Mix)
EXTD=
EXTT0=
EXTT1=
EXTT2=
EXTT3=
EXTT4=
EXTT5=
EXTT6=
EXTT7=
EXTT8=
EXTT9=
EXTT10=
EXTT11=
EXTT12=
PLAYORDER=
